<svg xmlns="http://www.w3.org/2000/svg" viewBox="15917.16 378 16 16"><defs><style>.a{fill:#f7f8f9}.b{fill:#fff}</style></defs><g transform="translate(15795)"><rect width="7.52" height="1" class="a" transform="translate(122.16 383.72)"/><path d="M7.52,170.516V168H0v3.52H7.52Z" class="b" transform="translate(122.16 216.72)"/><rect width="7.48" height="1" class="a" transform="translate(130.68 383.72)"/><path d="M220.48,170.516V168H213v3.52h7.48Z" class="b" transform="translate(-82.32 216.72)"/><rect width="7.52" height="1" class="a" transform="translate(122.16 389.48)"/><path d="M0,314.508v1.012H7.52V312H0Z" class="b" transform="translate(122.16 78.48)"/><rect width="7.48" height="1" class="a" transform="translate(130.68 389.48)"/><path d="M220.48,314.508V312H213v3.52h7.48Z" class="b" transform="translate(-82.32 78.48)"/><path d="M16,1V0H0V1H16Z" class="a" transform="translate(122.16 378)"/><path d="M16,27.488V25H0v3.48H16Z" class="b" transform="translate(122.16 354)"/></g></svg>