<svg xmlns="http://www.w3.org/2000/svg" viewBox="0 0 30.006 30.005"><defs><style>.a{fill:#2f4d8c}.b{fill:#99c1e3}.c{fill:none}</style></defs><g transform="translate(-359.268 -46.268)"><rect width="26.671" height="1.667" class="a" transform="translate(360.935 72.939)"/><rect width="20.07" height="1.667" class="a" transform="translate(364.268 69.605)"/><rect width="2.467" height="7.014" class="a" transform="translate(364.268 57.937)"/><rect width="2.534" height="6.608" class="a" transform="translate(381.738 57.937)"/><rect width="2.467" height="3.334" class="a" transform="translate(377.404 57.937)"/><rect width="2.467" height="7.301" class="a" transform="translate(373.003 57.937)"/><rect width="2.534" height="3.334" class="a" transform="translate(368.602 57.937)"/><g transform="translate(364.268 64.544)"><rect width="2.467" height="3.394" class="b"/></g><g transform="translate(381.738 64.138)"><rect width="2.534" height="3.801" class="b"/></g><g transform="translate(377.404 59.957)"><rect width="2.467" height="7.981" class="b"/></g><g transform="translate(373.003 64.638)"><rect width="2.467" height="3.301" class="b"/></g><g transform="translate(368.602 60.317)"><rect width="2.534" height="7.621" class="b"/></g><g transform="translate(359.268 46.268)"><path d="M25,31.668v1.667H51.671V31.668L38.336,25Z" class="a" transform="translate(-23.333 -23.333)"/><rect width="30.005" height="30.005" class="c"/></g></g></svg>