<svg xmlns="http://www.w3.org/2000/svg" xmlns:svg="http://www.w3.org/2000/svg" id="svg80" width="22" height="22" version="1.1" viewBox="0 0 22 22"><metadata id="metadata86"/><circle id="circle2" cx="1.833" cy="1.834" r=".611" style="fill:#36579e;fill-opacity:1"/><circle id="circle4" cx="1.833" cy="5.5" r=".611" style="fill:#36579e;fill-opacity:1"/><circle id="circle6" cx="1.833" cy="9.167" r=".611" style="fill:#36579e;fill-opacity:1"/><circle id="circle8" cx="1.833" cy="12.834" r=".611" style="fill:#36579e;fill-opacity:1"/><circle id="circle10" cx="1.833" cy="16.5" r=".611" style="fill:#36579e;fill-opacity:1"/><circle id="circle12" cx="1.833" cy="20.167" r=".611" style="fill:#36579e;fill-opacity:1"/><circle id="circle14" cx="5.5" cy="1.834" r=".611" style="fill:#36579e;fill-opacity:1"/><circle id="circle16" cx="5.5" cy="5.5" r=".611" style="fill:#36579e;fill-opacity:1"/><circle id="circle18" cx="5.5" cy="9.167" r=".611" style="fill:#36579e;fill-opacity:1"/><circle id="circle20" cx="5.5" cy="12.834" r=".611" style="fill:#36579e;fill-opacity:1"/><circle id="circle22" cx="5.5" cy="16.5" r=".611" style="fill:#36579e;fill-opacity:1"/><circle id="circle24" cx="5.5" cy="20.167" r=".611" style="fill:#36579e;fill-opacity:1"/><circle id="circle26" cx="9.167" cy="1.834" r=".611" style="fill:#36579e;fill-opacity:1"/><circle id="circle28" cx="9.167" cy="5.5" r=".611" style="fill:#36579e;fill-opacity:1"/><circle id="circle30" cx="9.167" cy="9.167" r=".611" style="fill:#36579e;fill-opacity:1"/><circle id="circle32" cx="9.167" cy="12.834" r=".611" style="fill:#36579e;fill-opacity:1"/><circle id="circle34" cx="9.167" cy="16.5" r=".611" style="fill:#36579e;fill-opacity:1"/><circle id="circle36" cx="9.167" cy="20.167" r=".611" style="fill:#36579e;fill-opacity:1"/><circle id="circle38" cx="12.833" cy="1.834" r=".611" style="fill:#36579e;fill-opacity:1"/><circle id="circle40" cx="12.833" cy="5.5" r=".611" style="fill:#36579e;fill-opacity:1"/><circle id="circle42" cx="12.833" cy="9.167" r=".611" style="fill:#36579e;fill-opacity:1"/><circle id="circle44" cx="12.833" cy="12.834" r=".611" style="fill:#36579e;fill-opacity:1"/><circle id="circle46" cx="12.833" cy="16.5" r=".611" style="fill:#36579e;fill-opacity:1"/><circle id="circle48" cx="12.833" cy="20.167" r=".611" style="fill:#36579e;fill-opacity:1"/><circle id="circle50" cx="16.5" cy="1.834" r=".611" style="fill:#36579e;fill-opacity:1"/><circle id="circle52" cx="16.5" cy="5.5" r=".611" style="fill:#36579e;fill-opacity:1"/><circle id="circle54" cx="16.5" cy="9.167" r=".611" style="fill:#36579e;fill-opacity:1"/><circle id="circle56" cx="16.5" cy="12.834" r=".611" style="fill:#36579e;fill-opacity:1"/><circle id="circle58" cx="16.5" cy="16.5" r=".611" style="fill:#36579e;fill-opacity:1"/><circle id="circle60" cx="16.5" cy="20.167" r=".611" style="fill:#36579e;fill-opacity:1"/><circle id="circle62" cx="20.167" cy="1.834" r=".611" style="fill:#36579e;fill-opacity:1"/><circle id="circle64" cx="20.167" cy="5.5" r=".611" style="fill:#36579e;fill-opacity:1"/><circle id="circle66" cx="20.167" cy="9.167" r=".611" style="fill:#36579e;fill-opacity:1"/><circle id="circle68" cx="20.167" cy="12.834" r=".611" style="fill:#36579e;fill-opacity:1"/><circle id="circle70" cx="20.167" cy="16.5" r=".611" style="fill:#36579e;fill-opacity:1"/><circle id="circle72" cx="20.167" cy="20.167" r=".611" style="fill:#36579e;fill-opacity:1"/><path id="path74" d="M 17.983,1.223 H 9.604 L 4.018,12.395 H 9.604 L 6.811,20.774 17.983,9.602 h -5.7 z" style="fill:#99c1e3;fill-opacity:1"/><rect id="rect78" width="22" height="22" fill="none"/></svg>