<svg xmlns="http://www.w3.org/2000/svg" viewBox="0 0 20 20"><defs><style>.cls-1{fill:none}.cls-2{fill:#2f4d8c}.cls-3{fill:#99c1e3}.cls-4{fill:#2f4d8c}</style></defs><g id="Layer_2" data-name="Layer 2"><g id="icon"><g><g><rect width="20" height="20" class="cls-1"/><g><rect width="17.78" height="13.97" x="1.11" y="3.02" class="cls-2" rx="1.11"/><rect width="17.78" height="12.7" x="1.11" y="4.29" class="cls-3" rx="1.06"/></g></g><g><rect width="5" height="3.33" x="4.44" y="8.97" class="cls-4" rx=".66"/><rect width="5" height="3.33" x="10.56" y="8.97" class="cls-4" rx=".66"/><rect width="1.11" height=".56" x="3.89" y="8.97" class="cls-4"/><rect width="1.11" height=".56" x="15" y="8.97" class="cls-4"/><rect width="3.13" height=".56" x="8.45" y="9.52" class="cls-4"/><path d="M5.69,11.81a.88.88,0,0,1-.88-.89h.44a.45.45,0,0,0,.44.45Z" class="cls-3"/><path d="M11.78,11.81a.89.89,0,0,1-.89-.89h.44a.45.45,0,0,0,.45.45Z" class="cls-3"/></g></g></g></g></svg>