<svg xmlns="http://www.w3.org/2000/svg" viewBox="0 0 16 16"><defs><style>.a{fill:#424f67}.b{fill:none}.c{fill:#8997a5}</style></defs><g transform="translate(-19 -680.955)"><path d="M41.125,65.8V56.789a1,1,0,0,0-2,0v.017h-8v-.017a1,1,0,0,0-2,0V65.8h-1v2H42.124v-2Zm-2-3h-8v-2h8Zm0-5v2h-8v-2Zm-8,5.994h8v2h-8Z" class="a" transform="translate(-8.127 627.154)"/><rect width="16" height="16" class="b" transform="translate(19 680.955)"/><g><path d="M114.061,71.666a1.028,1.028,0,0,0,0-2.056h0a1.045,1.045,0,0,0-.249.03l-.009,0a1.029,1.029,0,0,0,0,1.991l.009,0a1.027,1.027,0,0,0,.249.03Z" class="c" transform="translate(23.017 683.429) translate(-113.03 -69.61)"/></g><g><path d="M170.9,71.666a1.028,1.028,0,0,0,0-2.056h0a1.045,1.045,0,0,0-.249.03l-.009,0a1.029,1.029,0,0,0,0,1.991l.009,0a1.027,1.027,0,0,0,.249.03Z" class="c" transform="translate(25.037 683.429) translate(-169.87 -69.61)"/></g><g><path d="M225.431,156.036a1.028,1.028,0,0,0,0-2.056h0a1.044,1.044,0,0,0-.249.03l-.009,0a1.029,1.029,0,0,0,0,1.991l.009,0a1.027,1.027,0,0,0,.249.03Z" class="c" transform="translate(26.975 686.428) translate(-224.4 -153.98)"/></g><g><path d="M282.272,156.036a1.028,1.028,0,0,0,0-2.056h0a1.044,1.044,0,0,0-.249.03l-.009,0a1.029,1.029,0,0,0,0,1.991l.009,0a1.027,1.027,0,0,0,.249.03Z" class="c" transform="translate(28.996 686.428) translate(-281.24 -153.98)"/></g><g><path d="M113.371,240.416a1.028,1.028,0,0,0,0-2.056h0a1.045,1.045,0,0,0-.249.03l-.009,0a1.029,1.029,0,0,0,0,1.991l.009,0a1.027,1.027,0,0,0,.249.03Z" class="c" transform="translate(22.993 689.427) translate(-112.34 -238.36)"/></g><g><path d="M170.211,240.416a1.028,1.028,0,0,0,0-2.056h0a1.045,1.045,0,0,0-.249.03l-.009,0a1.029,1.029,0,0,0,0,1.991l.009,0a1.027,1.027,0,0,0,.249.03Z" class="c" transform="translate(25.013 689.427) translate(-169.18 -238.36)"/></g></g></svg>