<svg xmlns="http://www.w3.org/2000/svg" viewBox="0 0 40 40"><defs><style>.cls-1{fill:#fd704a}.cls-2{fill:#132f4b}.cls-3{fill:none}</style></defs><title>ticket-revoked</title><g id="Layer_2" data-name="Layer 2"><g id="Layer_1-2" data-name="Layer 1"><g id="Symbol_4_1" data-name="Symbol 4 1"><g id="Group_434" data-name="Group 434"><g id="Group_433" data-name="Group 433"><g id="Group_431" data-name="Group 431"><path id="Path_178" d="M21.89,32.43,40,28,38.61,22.3h0a6.67,6.67,0,0,1-3.18-13h0L34,3.65l-12.13,3Z" class="cls-1" data-name="Path 178"/><path id="Path_179" d="M18.06,7.56,0,12l1.39,5.69a6.67,6.67,0,0,1,3.18,13L6,36.33l12.09-3V7.56Z" class="cls-1" data-name="Path 179"/></g><g id="Group_432" data-name="Group 432"><path id="Path_180" d="M18.06,12.73a7.5,7.5,0,0,0,0,14.51Z" class="cls-2" data-name="Path 180"/><path id="Path_181" d="M21.9,12.73V27.24a7.5,7.5,0,0,0,0-14.51Z" class="cls-2" data-name="Path 181"/></g><g id="_Group_" data-name="&lt;Group&gt;"><rect id="_Path_" width="1.27" height="5.01" x="19.34" y="32.54" class="cls-2" data-name="&lt;Path&gt;"/><rect id="_Path_2" width="1.27" height="5.01" x="19.34" y="25" class="cls-2" data-name="&lt;Path&gt;"/><rect id="_Path_3" width="1.27" height="5.01" x="19.34" y="17.48" class="cls-2" data-name="&lt;Path&gt;"/><rect id="_Path_4" width="1.27" height="5.01" x="19.34" y="9.96" class="cls-2" data-name="&lt;Path&gt;"/><rect id="_Path_5" width="1.27" height="5.01" x="19.34" y="2.45" class="cls-2" data-name="&lt;Path&gt;"/></g></g></g></g><g id="_Group_2" data-name="&lt;Group&gt;"><rect id="_Path_6" width="40" height="40" class="cls-3" data-name="&lt;Path&gt;"/></g></g></g></svg>